<svg xmlns="http://www.w3.org/2000/svg" viewBox="0 0 512 512" width="512" height="512">
  <defs>
    <linearGradient id="bgGrad" x1="0%" y1="0%" x2="100%" y2="100%">
      <stop offset="0%" stop-color="#0f172a" />
      <stop offset="50%" stop-color="#1e1b4b" />
      <stop offset="100%" stop-color="#090d16" />
    </linearGradient>
    <linearGradient id="streamGrad" x1="0%" y1="0%" x2="100%" y2="100%">
      <stop offset="0%" stop-color="#9146FF" />
      <stop offset="50%" stop-color="#FF0050" />
      <stop offset="100%" stop-color="#00F2FE" />
    </linearGradient>
    <filter id="glow" x="-20%" y="-20%" width="140%" height="140%">
      <feGaussianBlur stdDeviation="12" result="blur" />
      <feComposite in="SourceGraphic" in2="blur" operator="over" />
    </filter>
  </defs>

  <!-- Background rounded box -->
  <rect width="512" height="512" rx="112" fill="url(#bgGrad)" />
  <rect width="504" height="504" x="4" y="4" rx="108" fill="none" stroke="url(#streamGrad)" stroke-width="6" opacity="0.6"/>

  <!-- Chat Bubble 1 -->
  <path d="M120 160 C 120 120, 392 120, 392 160 C 392 230, 320 250, 290 250 L 250 290 L 250 250 L 170 250 C 130 250, 120 210, 120 160 Z" fill="url(#streamGrad)" filter="url(#glow)" opacity="0.9" />

  <!-- Lightning Bolt (Realtime / Power) -->
  <polygon points="275,145 235,225 265,225 240,305 305,215 270,215" fill="#ffffff" filter="url(#glow)"/>

  <!-- Multi-Stream Dots (Twitch, YouTube, TikTok) -->
  <circle cx="170" cy="355" r="28" fill="#9146FF" />
  <circle cx="256" cy="355" r="28" fill="#FF0000" />
  <circle cx="342" cy="355" r="28" fill="#00F2FE" />

  <!-- Icons inside dots -->
  <polygon points="163,345 163,365 177,355" fill="#ffffff" />
  <polygon points="249,345 249,365 265,355" fill="#ffffff" />
  <circle cx="342" cy="355" r="10" fill="#fe2c55" />
</svg>